<?xml version="1.0" encoding="utf-8"?>
<!-- Generator: Adobe Illustrator 26.0.1, SVG Export Plug-In . SVG Version: 6.00 Build 0)  -->
<svg version="1.1" id="Layer_2" xmlns="http://www.w3.org/2000/svg" xmlns:xlink="http://www.w3.org/1999/xlink" x="0px" y="0px"
	 viewBox="0 0 144 144" style="enable-background:new 0 0 144 144;" xml:space="preserve">
<style type="text/css">
	.st0{fill:url(#SVGID_1_);}
	.st1{fill:#FFFFFF;}
</style>
<linearGradient id="SVGID_1_" gradientUnits="userSpaceOnUse" x1="-1222.1346" y1="631.8546" x2="-1193.8503" y2="660.1388" gradientTransform="matrix(3 0 0 3 3696 -1866)">
	<stop  offset="0" style="stop-color:#711FFF"/>
	<stop  offset="1" style="stop-color:#4C0EB7"/>
</linearGradient>
<path class="st0" d="M132,72c0,33.1-26.9,60-60,60s-60-26.9-60-60s26.9-60,60-60S132,38.9,132,72z"/>
<g id="Livello_107">
	<path class="st1" d="M66.6,69.1L52,83.6c-1.8,1.8-2.9,4.3-2.9,6.9c0,2.6,1,5.1,2.9,6.9c1.8,1.8,4.3,2.9,6.9,2.9h0
		c2.6,0,5.1-1,6.9-2.9l14.5-14.5c3-3,3.7-7.5,1.8-11.3L79,74.8c0.4,1.9-0.2,3.8-1.5,5.2L62.6,94.9l0,0c-1.1,0.9-2.4,1.4-3.8,1.4
		c-1.5,0-2.9-0.6-4-1.6c-1.1-1.1-1.7-2.5-1.6-4c0-1.4,0.5-2.7,1.4-3.8l0,0l0.2-0.2c0,0,0.1-0.1,0.1-0.1c0,0,0,0,0,0l0-0.1L69.5,72
		c1.1-1.1,2.5-1.7,4-1.7c0.4,0,0.8,0,1.2,0.1l3.2-3.2c-1.3-0.7-2.8-1-4.4-1C70.9,66.2,68.4,67.2,66.6,69.1 M94.8,53.5
		c0-2.6-1-5.1-2.9-6.9c-1.8-1.8-4.3-2.9-6.9-2.9c-2.6,0-5.1,1-6.9,2.9L63.6,61.1c-3,3-3.7,7.5-1.8,11.3l3.1-3.1
		c-0.4-1.7,0.1-3.6,1.3-4.9l0,0l0.2-0.2c0,0,0.1-0.1,0.1-0.1c0,0,0,0,0,0l0.1-0.1l14.5-14.5c1.1-1.1,2.5-1.7,4-1.7
		c1.5,0,2.9,0.6,4,1.7c2.2,2.2,2.2,5.8,0,8L74.2,72.4l0,0c-1.1,0.9-2.4,1.4-3.8,1.4c-0.4,0-0.8,0-1.1-0.1l-3.1,3.1
		c1.3,0.7,2.8,1,4.4,1c2.6,0,5.1-1,6.9-2.9L92,60.4C93.8,58.5,94.8,56.1,94.8,53.5"/>
</g>
<g id="Livello_1_1_">
</g>
</svg>
