<svg id="Layer_1" data-name="Layer 1" xmlns="http://www.w3.org/2000/svg" xmlns:xlink="http://www.w3.org/1999/xlink" width="120" height="120" viewBox="0 0 120 120"><defs><style>.cls-1{fill:url(#linear-gradient);}.cls-2{fill:#fff;}</style><linearGradient id="linear-gradient" x1="-608.14" y1="754.14" x2="-579.86" y2="725.86" gradientTransform="matrix(3, 0, 0, -3, 1854, 2292)" gradientUnits="userSpaceOnUse"><stop offset="0" stop-color="#711fff"/><stop offset="1" stop-color="#4c0eb7"/></linearGradient></defs><path class="cls-1" d="M132,72A60,60,0,1,1,72,12,60,60,0,0,1,132,72Z" transform="translate(-12 -12)"/><path class="cls-2" d="M41.07,76.5h-.2V87.93a3.45,3.45,0,0,0,.54,1.85L57.52,76.5Z" transform="translate(-12 -12)"/><path class="cls-2" d="M103.06,55.31,82.13,72.54l20.93,17.24a3.5,3.5,0,0,0,.53-1.84V57.14A3.44,3.44,0,0,0,103.06,55.31Z" transform="translate(-12 -12)"/><path class="cls-2" d="M41.07,76.5h-.2V87.93a3.45,3.45,0,0,0,.54,1.85L57.52,76.5Z" transform="translate(-12 -12)"/><path class="cls-2" d="M77.5,76.5l-4.64,3.82a1,1,0,0,1-.63.23,1,1,0,0,1-.64-.23L67,76.5H62.44L43.7,92h0a3.55,3.55,0,0,0,1.56.37h54a3.38,3.38,0,0,0,1.55-.38L82,76.5Z" transform="translate(-12 -12)"/><path class="cls-2" d="M72.23,76.64l28.54-23.5h0a3.45,3.45,0,0,0-1.56-.37h-54a3.39,3.39,0,0,0-1.56.37h0Z" transform="translate(-12 -12)"/><path class="cls-2" d="M72.86,80.32a1,1,0,0,1-.63.23,1,1,0,0,1-.64-.23L64.7,74.64,43.7,92h0a3.55,3.55,0,0,0,1.56.37h54a3.38,3.38,0,0,0,1.55-.38l-21-17.3Z" transform="translate(-12 -12)"/><path class="cls-2" d="M41.41,55.3a3.51,3.51,0,0,0-.54,1.84V87.93a3.45,3.45,0,0,0,.54,1.85L62.33,72.53Z" transform="translate(-12 -12)"/><path class="cls-2" d="M103.4,76.5H86.94l16.13,13.28a3.5,3.5,0,0,0,.53-1.84V76.5Z" transform="translate(-12 -12)"/></svg>