<?xml version="1.0" encoding="utf-8"?>
<!-- Generator: Adobe Illustrator 26.0.1, SVG Export Plug-In . SVG Version: 6.00 Build 0)  -->
<svg version="1.1" id="Layer_2" xmlns="http://www.w3.org/2000/svg" xmlns:xlink="http://www.w3.org/1999/xlink" x="0px" y="0px"
	 viewBox="0 0 144 144" style="enable-background:new 0 0 144 144;" xml:space="preserve">
<style type="text/css">
	.st0{fill:url(#SVGID_1_);}
	.st1{fill:#FFFFFF;}
</style>
<linearGradient id="SVGID_1_" gradientUnits="userSpaceOnUse" x1="-1222.1346" y1="631.8546" x2="-1193.8503" y2="660.1388" gradientTransform="matrix(3 0 0 3 3696 -1866)">
	<stop  offset="0" style="stop-color:#711FFF"/>
	<stop  offset="1" style="stop-color:#4C0EB7"/>
</linearGradient>
<path class="st0" d="M132,72c0,33.1-26.9,60-60,60s-60-26.9-60-60s26.9-60,60-60S132,38.9,132,72z"/>
<g>
	<path class="st1" d="M50.9,57.4c-1-0.4-1.8-1.1-2.4-1.9c-0.6-0.8-0.8-1.8-0.8-3c0-1.1,0.3-2.1,0.8-3s1.4-1.5,2.4-1.9
		c1-0.4,2.2-0.7,3.6-0.7s2.6,0.2,3.6,0.7c1,0.4,1.8,1.1,2.4,1.9s0.8,1.8,0.8,3c0,1.1-0.3,2.1-0.8,3c-0.6,0.8-1.4,1.5-2.4,1.9
		c-1,0.4-2.2,0.7-3.6,0.7S52,57.8,50.9,57.4z M48.4,87.7V59.5l6.1,1.2l6.1-1.2v28.2H48.4z"/>
	<path class="st1" d="M94.4,60.8c1.9,1.1,3.4,2.6,4.4,4.5s1.5,4.2,1.5,6.8v15.6H88.1V73.8c0-1.5-0.4-2.7-1.3-3.6
		c-0.8-0.8-2-1.2-3.6-1.2c-1.6,0-2.9,0.5-3.9,1.4c-0.9,1-1.4,2.3-1.4,4v13.2H65.9V69.9L63.9,60h12.2l0.9,5.2c1.2-2,2.7-3.5,4.6-4.5
		c1.8-1,3.8-1.5,6-1.5C90.3,59.2,92.5,59.7,94.4,60.8z"/>
</g>
</svg>
